<svg width="969" height="836" viewBox="0 0 969 836" fill="none" xmlns="http://www.w3.org/2000/svg">
<path d="M670.04 288.26C670.74 285.63 671.5 283.03 672.14 280.41C672.776 278.385 673.244 276.312 673.54 274.21C674.19 266.21 674.69 258.28 675.17 250.31C675.31 248.02 675.17 245.71 675.17 242.43C676.73 237.27 678.61 231.09 680.65 224.36L672.83 219.71C671.51 214.06 672.27 212.03 676.75 208.98C679.58 209.33 680.48 211.31 680.75 213.83C680.97 215.95 681.18 218.07 681.44 220.58C684.49 216.82 687.44 208.47 687.25 204.24L681.34 202.71L681.34 201.89L688.89 201.21C694.45 190.97 699.5 180.13 708.5 172C708.3 175.94 704.65 177.64 702.92 180.6C701.08 183.75 698.83 186.68 697.04 189.86C695.25 193.04 693.87 196.28 692.14 199.86C702.91 204.56 701.22 214.76 702.88 223.47C705.65 226.28 710.22 227.11 711.51 231.56C710.38 235.81 706.03 235.24 703 237.04L703 257.56C706.8 256.72 710 256.17 713.08 255.29C717.56 254.01 721.89 252.15 726.42 251.16C733.73 249.56 740.28 251.16 745.26 256.94C746.44 260.82 744.26 262.94 741.56 264.45C736.88 267.01 731.81 268.02 726.65 266.06C723.206 264.828 719.909 263.219 716.82 261.26C712.45 258.34 708.25 257.95 702.94 260.96C702.45 262.96 701.8 265.59 701.04 268.68L709.27 268.32C710.92 275.48 706.88 281.14 696.5 286.44C693.492 296.685 692.271 307.371 692.89 318.03C698.16 315.79 703.2 313.52 708.34 311.5C712.81 309.74 717.19 310.43 721.34 312.67C723.95 314.08 725.83 316.04 726.06 319.6C716.28 326.35 706.76 322.15 697.95 318.65C696.277 319.288 694.8 320.355 693.668 321.743C692.536 323.131 691.789 324.792 691.5 326.56C689.81 333.85 688.888 341.298 688.75 348.78C690.75 349.09 692.46 349.43 694.21 349.61C698.42 349.867 702.411 351.578 705.5 354.45C707.03 355.91 708.6 357.64 707.5 359.6C706.461 361.217 704.874 362.407 703.03 362.95C697.44 364.42 692.12 363.7 687.28 358.74C684.69 368.56 683.6 377.67 686.14 387.74C689.48 385.16 692.3 382.87 695.23 380.74C701.09 376.44 707.79 376.42 714.86 381.07C712.737 382.087 710.549 382.962 708.31 383.69C704.5 384.63 700.7 385.03 697 385.98C693.51 386.88 690.14 388.22 686.28 389.51C686.92 401.51 687.52 412.92 688.16 425C692.39 424.58 695.99 423.84 699.56 424C703.13 424.16 706.76 424.91 709.73 428.23C701.51 430.51 693.73 427.37 685.51 428.16L682.63 424.63C681.45 424.86 679.68 424.69 678.73 425.49C674.34 429.21 669.21 428.99 663.07 428.78L658.37 422.87C661.93 415.75 663.65 414.87 675.06 414.05C675.78 410.72 676.7 407.21 677.25 403.65C677.8 400.09 677.91 396.7 678.25 393.13L683.5 391.43C683.5 389.34 683.6 387.21 683.5 385.09C683.21 379.79 682.84 374.5 682.5 369.21C682.21 364.89 682.06 360.55 681.5 356.21C681.27 354.36 680.24 352.6 679.69 351.12C674.88 350.61 670.69 350.55 666.69 349.67C657.78 347.75 653.91 341.03 655.9 334.11C659.9 332.02 662.8 332.28 666.15 335.54C668.89 338.21 671.25 341.26 673.9 344.02C675.57 345.75 677.47 347.27 679.47 349.07C681.12 343.9 679.11 326.15 676.34 319.13C667.14 319.2 658.59 325.72 648 322.52C655.77 313.97 665.19 313.2 675.18 313.72C676.62 306.05 674.75 298.86 674.47 291.25L671.19 288.9L670.04 288.26ZM695.57 256.74C687.5 257.94 682.96 251.63 676.63 247.63C675.17 259.47 674.56 270.56 677.12 282.23C686.12 280.86 691.29 273.88 698.61 269.86C698.98 266.7 699.36 263.48 699.71 260.5L695.57 256.74ZM689.57 319.08C690.66 307.63 691.68 297.17 692.68 286.77C684.22 284.44 681.5 284.25 676.88 285.63C676.251 295.147 676.795 304.706 678.5 314.09L689.57 319.08ZM679.05 239.98C689.74 240.87 692.57 251.2 699.93 257.4C701.12 249.81 700.28 243.17 699.49 237.4L685.9 226.09C681.64 226.8 679.05 231.58 679.04 239.98L679.05 239.98ZM691.35 203.63C687.99 209.9 684.8 219.98 685.1 223.98L698.92 222.85C699.92 216.45 699.4 213.13 696.54 206.51L691.35 203.63ZM689.65 321.54L680.09 317.74C678.9 323.55 682.26 346.87 685.09 351.23C687.45 341.26 688.01 331.76 689.65 321.57L689.65 321.54ZM683.38 393.17C682.24 394.71 681.64 395.17 681.53 395.74C680.28 402.06 678.8 408.35 678.03 414.74C677.58 418.41 681.5 422.39 685.62 423.28C685.62 413.5 685.72 403.8 683.38 393.2L683.38 393.17Z" fill="#38523E"/>
<path d="M205.052 615.801C197.71 616.993 190.12 618.261 183.636 613.003C181.978 611.679 180.97 609.54 179.772 607.908C181.961 604.523 184.758 604.475 187.341 604.65C192.568 604.991 197.511 606.255 201.469 610.118C203.278 611.867 205.365 613.301 207.645 614.362C204.158 604.772 201.612 594.843 194.097 587.61C193.597 581.27 186.874 565.317 182.985 561.443L177.741 561.661C173.577 559.01 169.974 555.968 168.212 550.975C172.321 546.586 176.985 548.374 181.917 549.809C181.731 539.767 184.183 530.112 182.991 520.952C178.509 518.973 174.639 517.56 171.171 515.543C170.105 514.927 169.992 512.672 169.437 511.158C174.614 509.486 176.945 510.103 184.877 515.171C184.772 513.52 184.671 512.16 184.592 510.805C184.127 503.858 183.165 496.896 183.332 489.967C183.647 477.121 181.709 464.319 177.606 452.143L169.505 450.294C169.683 448.578 169.813 447.221 169.981 445.612C166.412 448.446 168.675 452.68 167.096 455.973C164.562 452.323 164.58 449.569 167.11 442.745L171.052 441.167L160.112 427.262C159.4 431.065 158.898 433.978 158.31 436.886C156.58 445.41 148.675 450.276 139.539 448.221C138.808 445.415 138.924 442.456 139.871 439.716C140.818 436.975 142.554 434.576 144.86 432.82C149.045 429.402 154.522 427.544 159.976 424.722C158.342 422.209 156.727 419.962 155.35 417.57C152.792 413.122 150.473 408.602 147.897 404.16C145.32 399.718 142.561 395.332 139.831 390.937C137.569 387.288 134.968 383.795 134.98 378.449C137.932 378.932 140.746 380.04 143.235 381.7C145.724 383.359 147.83 385.53 149.411 388.069C152.854 393.293 151.023 399.36 150.149 405.48L152.865 408.834L155.505 408.03L162.663 391.212L167.048 391.674C171.994 397.098 170.418 403.621 171.215 409.462C178.648 417.316 178.648 417.316 178.866 421.118C176.298 423.636 176.298 423.636 166.292 425.755C167.359 429.737 171.57 435.186 176.716 439.001C184.096 437.798 189.961 442.052 196.058 445.798C198.976 447.585 202.058 449.123 206.119 451.367C205.673 448.052 205.671 445.92 205.067 443.972C201.237 431.611 199.922 418.892 199.397 406.058C199.178 400.845 198.284 396.298 194.67 391.817C191.057 387.336 188.7 381.458 186.299 375.98C184.041 370.835 185.998 365.868 188.327 361.092L186.129 353.879C181.828 350.779 177.554 347.973 172.046 346.913C165.888 345.591 159.832 343.839 153.92 341.669C151.922 340.982 150.349 339.078 148.603 337.739C152.445 332.647 159.811 331.019 164.548 334.248C168.371 336.846 171.662 340.234 175.268 343.181C177.637 345.185 180.232 346.906 182.999 348.31C180.126 336.996 176.061 326.474 168.793 317.033C164.981 317.149 161.352 317.21 157.727 317.322C154.402 317.425 151.081 317.674 147.747 317.677C142.091 317.676 138.346 315.2 135.303 309.332C139.108 305.559 143.998 305.48 148.556 306.714C153.114 307.949 157.001 310.413 161.214 312.401C163.257 313.378 165.194 314.554 167.181 315.653L168.134 314.63C167.2 313.287 166.186 312.001 165.099 310.778C162.75 308.42 160.144 306.319 157.859 303.9C153.77 299.72 151.342 294.195 151.031 288.355C151.992 289.365 152.898 290.425 153.745 291.532C158.893 299.299 163.584 307.351 170.728 313.641C172.149 314.871 172.802 317.013 173.625 318.822C177.232 327.058 180.748 335.332 184.308 343.583C184.962 345.077 185.808 346.482 186.83 348.428C189.287 344.689 190.03 341.023 190.765 337.329C191.927 331.162 193.937 325.406 198.884 321.128C201.415 318.935 201.953 318.781 205.612 318.952C208.758 324.025 208.528 328.517 204.27 332.899C201.501 335.75 198.223 338.098 195.147 340.697C188.164 346.631 186.993 354.212 191.848 362.559C194.688 361.589 196.241 357.697 200.662 358.827C200.556 361.118 200.626 363.543 200.286 365.894C199.749 369.518 198.917 373.096 198.238 376.7C197.479 380.979 197.745 385.376 199.012 389.532C199.919 392.521 200.417 395.619 200.492 398.741C200.597 412.73 202.331 426.66 205.657 440.248C206.296 442.928 207.381 445.493 208.275 448.117L209.798 448.071C209.945 446.635 210.179 445.205 210.229 443.758C210.375 439.95 210.309 436.133 210.563 432.334C210.992 426.025 215.106 422.168 220.082 419.146C221.28 418.415 223.074 418.673 224.803 418.449C226.459 426.109 224.144 432.167 220.252 437.817C219.195 439.518 217.849 441.022 216.275 442.26C209.827 446.828 209.941 453.139 211.687 459.622C215.407 473.437 222.139 485.854 230.151 497.598C231.022 498.605 232.024 499.492 233.129 500.235C235.252 503.769 237.197 507.201 239.322 510.537C247.17 522.523 253.635 535.359 258.594 548.8C259.034 550.036 259.607 551.231 260.045 552.258C270.691 554.052 275.578 545.255 283.203 539.847C283.67 545.873 284.277 551.019 280.427 555.057C274.184 558.277 268.769 552.034 262.185 554.888C263.171 557.128 263.98 559.369 265.103 561.442C270.334 571.096 275.797 580.617 280.856 590.355C282.921 594.315 284.188 598.749 285.805 602.887C286.217 603.932 286.697 604.957 287.088 605.862C293.922 606.435 295.883 601.206 298.221 596.907C304.701 598.069 309.012 605.798 306.417 611.073L292.792 610.584L292.705 611.395L288.553 609.399C293.225 623.321 297.683 636.578 302.343 650.462C305.885 650.146 309.658 649.801 313.428 649.614C315.746 649.392 318.08 649.381 320.401 649.579C326.237 650.309 328.372 653.746 326.909 660.642L304.974 656.246C306.918 666.056 310.75 674.683 312.776 683.422C315.797 686.098 320.351 685.295 322.8 689.933L313.922 690.234C314.919 704.242 318.498 717.254 324.107 730.787C326.354 728.339 329.15 726.46 332.265 725.303C335.38 724.147 338.725 723.746 342.026 724.133C348.156 724.628 354.691 722.437 361.292 726.98C359.405 727.168 358.423 727.342 357.446 727.358C350.959 727.411 344.461 727.218 337.989 727.559C333.367 727.797 328.629 728.405 325.326 733.311C330.536 750.405 337.313 767.292 341.281 785.078C337.893 781.783 337.629 777.211 336.146 773.168C334.663 769.125 333.439 764.939 332.011 760.838C330.527 756.585 328.957 752.36 327.402 748.15C325.915 744.129 324.38 740.122 322.46 735.021C318.06 741.474 310.435 742.867 307.612 749.76C306.951 751.331 304.852 752.608 303.131 753.373C300.372 754.611 297.417 755.209 294.586 756.208C292.913 756.791 291.331 757.638 289.923 758.266C289.095 761.791 289.844 764.385 292.047 766.505C294.905 769.261 295.82 772.673 295.718 776.489C295.679 778.591 296.02 780.672 296.237 783.303C297.667 783.024 299.065 782.598 300.408 782.032C308.697 777.091 316.739 777.305 324.685 782.797C326.89 784.125 328.48 786.271 329.108 788.767L328.344 789.69C326.888 788.858 325.432 788.027 323.996 787.189C320.985 785.441 318.107 783.37 314.931 782.007C309.772 779.795 304.824 781.156 298.668 786.273C300.008 789.399 301.446 792.745 302.892 796.151L302.132 796.676C299.53 792.837 296.94 789.006 293.427 783.825C292.567 776.928 290.466 770.244 287.226 764.096C286.402 762.559 286.955 760.258 286.965 758.3C286.971 754.89 287.047 751.47 287.102 747.741L279.118 745.554L277.192 752.717C272.222 749.924 274.15 744.141 270.59 740.417L265.256 740.684C268.548 761.948 278.208 780.644 284.144 800.496L282.964 800.981C282.184 798.866 281.429 796.734 280.601 794.634C279.693 792.308 278.589 790.02 277.801 787.678C273.575 775.219 269.455 762.727 265.238 750.265C264.233 747.31 263.014 744.441 261.515 740.517L256.54 747.93C260.289 766.201 269.039 782.905 271.387 801.31L270.431 801.602L255.233 751.736C251.304 752.568 247.791 753.492 244.247 754.039C240.702 754.586 236.92 754.526 233.538 752.003C233.047 750.804 232.482 749.429 231.913 748.045L231.576 748.377L219.941 736.41L217.58 739.879C226.814 762.802 235.797 785.656 245.976 807.665C249.983 807.708 249.417 805.236 249.616 803.419C249.952 799.992 249.264 796.365 251.807 793.457C256.989 793.07 259.255 794.878 259.393 799.446C259.586 805.775 255.373 809.923 247.719 809.747L246.87 813.445C244.995 811.204 243.424 809.342 241.276 806.787L226.714 804.628C221.951 803.989 217.65 802.331 214.706 798.263C214.226 797.487 213.793 796.684 213.408 795.857C217.034 791.939 221.676 791.873 226.312 791.924C230.949 791.974 234.752 794.369 238.231 798.306C237.735 792.185 220.326 750.227 214.85 741.212C205.578 742.073 201.663 748.608 205.016 757.654C205.815 759.502 206.322 761.464 206.517 763.469C201.618 758.303 200.4 751.941 201.341 745.288C201.569 743.703 204.075 742.113 205.87 741.179C208.038 740.058 210.566 739.643 213.733 738.678C212.437 735.937 211.535 733.525 210.224 731.384C206.414 725.092 202.445 718.931 198.485 712.799C197.712 711.553 196.675 710.492 195.447 709.69C190.788 706.855 186.025 704.125 181.301 701.383C180.733 701.065 180.096 700.862 179.267 700.508L176.53 703.12C178.093 705.779 179.464 708.425 181.115 710.859C185.622 717.479 188.838 724.891 190.596 732.704C193.363 744.698 196.744 756.547 199.868 768.443L213.522 771.328C212.117 773.376 210.603 775.349 208.988 777.236C205.572 780.776 205.488 784.722 207.672 788.698C210.221 793.357 213.156 797.805 215.92 802.346C219.014 807.456 222.162 812.539 225.157 817.7C225.596 818.455 225.493 819.521 225.826 821.574C224.229 820.314 222.989 819.846 222.737 819.055C220.43 811.76 215.345 806.086 211.596 799.65C209.873 797.003 208.333 794.241 206.986 791.385C205.696 788.286 203.923 785.899 200.538 784.568C200.047 783.265 199.196 781.914 199.066 780.491C197.54 763.821 192.097 748.022 188.417 731.831C186.068 721.622 180.525 713.245 174.008 704.86L168.138 704.088C166.031 705.682 163.966 707.346 161.798 708.875C155.772 713.115 149.411 713.476 142.902 710.368C141.071 709.505 139.664 707.769 138.23 706.565C139.167 702.778 141.582 701.268 144.164 700.136C151.335 696.978 158.598 696.489 165.98 699.686C167.915 700.333 169.895 700.834 171.904 701.184C168.682 690.165 169.393 679.086 161.201 670.115C156.32 664.765 153.868 657.202 150.302 650.646C149.517 649.203 148.649 647.795 147.425 645.7C143.189 653.034 136.791 655.57 129.227 655.554C126.194 655.548 123.239 654.943 121.241 652.332C121.656 644.365 129.687 638.06 142.98 635.368C143.208 633.366 142.863 631.341 141.984 629.529C141.106 627.716 139.731 626.19 138.019 625.129C134.807 625.292 131.878 625.558 128.869 625.566C126.098 625.563 123.338 625.255 120.802 625.097C119.384 619.518 120.543 618.14 130.471 612.951C129.966 611.942 129.409 610.96 128.801 610.01C122.948 601.674 118.513 592.429 115.674 582.648C114.674 579.367 113.315 576.384 109.63 575.374C90.2305 579.363 77.3164 574.413 73.4 565.508C76.0017 563.137 79.1692 563.342 82.2802 563.774C89.4681 564.719 96.0283 567.55 102.419 570.923C105.399 572.503 108.795 573.318 112.74 574.74C113.118 568.269 111.598 561.829 108.368 556.209C105.347 550.858 103.193 545.712 103.305 539.322C103.397 533.69 100.772 528.438 97.9744 523.342L92.9127 524.33C91.4427 520.022 88.3325 517.604 83.9297 517.461C83.4338 517.139 82.9708 516.769 82.5475 516.356C74.5245 506.256 75.4838 508.786 65.325 508.349C62.1492 508.219 59.0026 508.185 55.7415 508.05L51.3317 502.808L51.9997 501.81C53.0862 502.128 54.1245 502.593 55.0861 503.19C57.7316 505.353 60.5486 506.878 64.0746 506.922C76.3853 507.079 76.3845 507.111 84.1899 514.988L94.4327 517.312C94.485 515.049 94.5233 512.842 94.579 509.835C96.917 509.582 99.1464 509.488 101.318 509.067C103.489 508.646 105.522 507.838 107.781 507.567C105.033 511.343 98.7332 510.053 96.8768 516.379C97.4709 517.745 98.3936 519.984 99.3994 522.186C100.839 525.333 102.353 528.447 103.79 531.584C104.905 534.117 106.172 536.579 107.585 538.958L114.521 568.061L115.525 568.131C115.989 567.25 116.35 566.319 116.603 565.356C117.073 562.233 117.177 559.044 117.805 555.957C119.423 547.822 127.176 545.271 133.675 550.713C134.27 554.138 132.263 556.37 129.771 558.175C127.279 559.98 124.697 561.352 122.242 563.073C119.787 564.793 117.741 567.069 118.185 570.582C123.692 573.388 129.141 576.38 134.771 578.971C140.757 581.736 144.838 585.865 146.242 592.358C144.239 598.509 138.739 595.178 134.409 596.853C136.167 604.681 137.935 612.505 139.808 620.81C143.31 618.582 143.919 615.846 144.283 613.027C144.647 610.208 144.724 607.373 145.248 604.6C145.729 602.73 146.352 600.901 147.114 599.128C153.833 600.216 155.639 601.819 157.072 607.791C154.748 615.086 145.52 615.849 142.371 622.464C144.608 634.16 169.609 671.493 178.305 676.359C181.835 674.05 185.131 671.519 188.787 669.589C195.128 666.214 203.985 668.658 207.771 674.665C208.503 675.832 208.599 677.382 209.069 678.922C205.92 681.146 202.717 680.481 199.714 679.923C195.14 679.08 190.646 677.783 186.089 676.757C184.574 676.514 183.045 676.366 181.511 676.313L181.117 677.353C181.692 678.22 182.409 678.984 183.238 679.613C186.816 681.439 187.933 684.454 188.133 688.23C188.282 691.122 188.85 694.012 189.164 696.279C196.269 696.539 202.481 696.684 208.673 697.107C209.422 697.161 210.069 698.772 210.704 699.551C209.093 705.447 204.002 706.821 199.024 709.248C204.012 719.028 210.149 727.811 215.848 737.49C219.431 733.742 222.851 731.414 227.619 732C232.387 732.585 235.26 735.703 238.302 739.198L249.031 734.579C245.704 719.17 243.057 703.762 236.821 689.166L232.859 688.377C231.283 680.567 231.324 672.4 227.409 664.802C216.184 665.222 206.366 662.716 202.155 650.545C205.433 647.58 205.433 647.58 221.037 646.64C219.376 638.72 215.524 631.709 212.628 624.333C211.208 620.672 208.519 617.643 205.052 615.801ZM254.048 554.807L257.165 553.679C255.739 545.228 251.2 533.836 244.332 522.757C239.595 515.137 233.983 508.045 229.477 500.292C220.962 485.627 212.352 470.96 207.7 454.565C199.171 447.504 190.098 448.607 180.515 451.465C180.488 452.379 180.543 453.293 180.678 454.196C183.937 467.839 185.851 481.63 184.912 495.768C184.682 499.163 185.424 502.627 185.729 506.234L192.054 507.161C194.756 505.187 197.27 503.282 199.856 501.479C202.443 499.677 205.03 497.874 208.433 498.269C210.106 505.234 206.635 510.171 199.846 510.295C196.764 510.21 193.688 509.965 190.632 509.56C187.307 516.009 187.365 515.991 188.709 522.084C189.226 524.362 189.603 526.663 190.109 528.975C191.608 535.886 193.541 542.696 195.895 549.364C201.901 547.837 206.665 542.067 213.04 546.794C212.8 555.231 205.97 557.657 200.14 561.682C202.978 568.041 205.719 574.189 208.343 580.09C217.618 580.473 225.256 578.573 231.063 572.758L231.81 566.393C235.388 567.843 235.157 570.172 234.416 572.133C231.016 581.041 230.772 587.409 217.282 582.457C216.113 581.938 214.815 581.784 213.557 582.016C212.299 582.248 211.141 582.855 210.235 583.758C212.94 591.296 215.669 598.912 218.266 606.128C223.456 607.139 227.919 603.5 232.484 607.022C234.818 614.475 227.833 615.977 223.576 619.71C227.758 632.018 232.877 643.986 238.889 655.511C250.747 653.256 253.366 651.768 260.406 643.412C262.978 640.36 265.43 637.187 268.056 634.212C270.25 631.735 272.729 629.579 276.401 629.348C276.774 629.966 277.073 630.626 277.293 631.314C278.699 639.186 272.471 650.482 264.926 653.336C260.916 654.861 256.699 655.843 252.309 657.181C252.627 664.538 248.486 668.236 241.833 670.42C248.546 691.039 255.077 711.096 261.732 731.523L279.798 720.79L275.544 706.834C283.264 705.819 285.201 712.108 289.177 716.269C289.543 713.492 289.429 711.06 290.214 708.97C292.98 701.614 295.652 694.297 294.162 687.622L304.605 670.848C306.379 675.399 304.634 679.725 302.883 684.817L308.997 683.372C307.816 671.71 304.033 660.84 299.074 655.034L289.509 657.949L289.325 657.347L298.917 651.705L287.073 639.874L287.818 639.093L296.894 646.133C296.418 637.914 291.791 623.215 287.49 614.866C286.103 612.224 285.017 609.433 284.255 606.548C280.12 589.963 271.554 575.544 262.412 561.395C260.403 558.233 257.729 555.838 253.848 555.213L254.048 554.807ZM239.102 686.84C243.779 703.73 248.112 719.387 252.508 735.286L259.378 735.084C259.506 733.791 259.855 732.911 259.633 732.216C253.098 711.908 246.526 691.717 239.797 671.01L235.269 672.034L241.591 681.492L239.102 686.84ZM290.455 733.976C294.735 730.319 298.516 726.606 302.78 723.581C307.694 720.087 312.975 723.108 318.638 724.163L314.621 710.982C309.937 714.239 309.923 714.295 304.433 712.749C302.536 712.219 300.826 711.203 298.916 710.562C297.006 709.921 295.284 709.484 293.613 709.042C290.99 713.95 289.188 729.135 290.455 733.976ZM174.219 699.036L175.446 699.906C179.097 696.075 183.938 699.952 189.16 697.158C178.713 693.443 175.607 685.995 174.982 677.77L149.066 643.914C151.277 648.321 153.191 652.338 155.282 656.248C157.541 660.473 159.408 665.089 162.462 668.695C168.187 675.439 171.571 682.803 172.072 691.651C172.226 694.144 173.482 696.584 174.237 699.062L174.219 699.036ZM234.504 657.245L236.148 656.158C231.04 643.958 225.934 631.767 220.745 619.339L213.394 617.241C213.514 618.677 213.759 620.1 214.125 621.493C217.503 630.175 220.583 639.011 224.547 647.421C226.516 651.651 230.671 654.514 234.504 657.245ZM197.878 561.085L190.007 559.888C187.318 564.785 190.461 574.72 196.862 582.586L206.036 579.79C203.267 573.347 200.702 567.469 197.897 561.079L197.878 561.085ZM186.653 522.471C184.368 537.991 181.674 553.573 187.836 559.316L193.838 551.57C191.395 541.494 189.035 531.969 186.672 522.465L186.653 522.471ZM210.649 613.792L216.901 608.029C214.327 601.129 211.896 594.626 209.186 587.381L206.653 592.481L201.795 594.38C204.688 600.68 207.408 606.657 210.668 613.786L210.649 613.792ZM135.474 614.102C134.286 598.406 130.787 591.486 120.208 588.438C122.604 598.33 127.919 607.273 135.464 614.105L135.474 614.102ZM282.809 726.898L281.465 726.262C278.614 734.742 270.666 734.665 264.254 737.33C269.281 738.935 273.581 736.683 278.229 735.162L280.348 737.861L286.014 737.483L282.809 726.898ZM321.095 732.771C320.861 732.382 320.625 731.984 320.379 731.588C312.824 731.601 305.258 731.576 297.465 734.098L300.018 737.501L308.422 733.894L314.979 737.813L321.095 732.771ZM237.119 659.856C232.853 658.929 231.651 661.742 230.028 663.449L232.568 671.781C235.474 667.905 236.182 664.124 237.119 659.856ZM294.31 703.237L295.031 703.613L302.516 688.484C299.252 689.3 299.205 689.283 298.377 691.574C296.971 695.4 295.654 699.346 294.31 703.237ZM311.444 689.651L310.136 689.851C310.304 692.633 310.482 695.412 310.654 698.172L307.998 701.668L308.497 702.038L313.123 699.583C312.552 696.203 311.999 692.911 311.432 689.613L311.444 689.651Z" fill="#38523E"/>
<path d="M869.616 425.83C862.496 423.682 855.118 421.494 851.596 413.925C850.686 412.008 850.719 409.643 850.358 407.652C853.809 405.569 856.344 406.753 858.589 408.042C863.137 410.64 867.025 413.944 868.888 419.152C869.747 421.516 870.994 423.72 872.578 425.674C873.649 415.526 875.715 405.486 872.132 395.69C874.463 389.773 875.416 372.488 873.62 367.3L868.811 365.197C866.231 360.989 864.327 356.675 864.932 351.415C870.55 349.272 873.957 352.924 877.761 356.376C881.998 347.269 888.434 339.668 891.379 330.912C888.219 327.168 885.361 324.201 883.128 320.868C882.44 319.847 883.328 317.771 883.492 316.167C888.879 316.934 890.703 318.511 895.61 326.544C896.239 325.014 896.744 323.748 897.268 322.494C899.896 316.048 902.084 309.369 905.273 303.214C911.189 291.807 915.06 279.453 916.712 266.71L910.242 261.496C911.154 260.031 911.866 258.869 912.723 257.497C908.273 258.479 908.449 263.276 905.587 265.544C904.91 261.152 906.133 258.684 911.4 253.661L915.634 253.971L911.9 236.678C909.592 239.783 907.863 242.181 906.06 244.536C900.767 251.439 891.529 252.346 884.219 246.493C884.793 243.651 886.194 241.042 888.247 238.994C890.299 236.947 892.912 235.552 895.755 234.985C901.015 233.748 906.751 234.48 912.891 234.335C912.525 231.36 912.058 228.632 911.869 225.878C911.521 220.76 911.419 215.68 911.051 210.558C910.682 205.437 910.126 200.285 909.6 195.138C909.167 190.866 908.361 186.586 910.716 181.787C913.157 183.516 915.2 185.746 916.71 188.328C918.219 190.911 919.159 193.786 919.468 196.761C920.271 202.965 915.965 207.615 912.496 212.733L913.467 216.938L916.192 217.373L929.999 205.397L933.738 207.735C935.805 214.778 931.528 219.949 929.683 225.548C932.919 235.866 932.919 235.866 931.448 239.379C928.037 240.516 928.037 240.516 918.114 238.033C917.327 242.079 918.723 248.823 921.675 254.509C928.835 256.663 932.24 263.059 936.078 269.098C937.916 271.983 940.012 274.717 942.677 278.514C943.73 275.34 944.664 273.424 944.975 271.407C946.953 258.619 951.348 246.611 956.504 234.846C958.593 230.066 959.782 225.587 958.5 219.975C957.217 214.363 957.677 208.047 957.921 202.071C958.148 196.457 962.084 192.851 966.272 189.58L967.459 182.134C964.953 177.461 962.342 173.065 957.857 169.697C952.903 165.809 948.227 161.579 943.865 157.037C942.372 155.543 941.792 153.142 940.81 151.173C946.496 148.282 953.83 150.048 956.671 155.028C958.968 159.039 960.44 163.527 962.389 167.756C963.639 170.596 965.217 173.281 967.088 175.756C969.467 164.328 970.428 153.089 968.035 141.417C964.559 139.85 961.27 138.313 957.963 136.824C954.93 135.459 951.835 134.227 948.838 132.767C943.755 130.286 941.475 126.419 941.313 119.811C946.388 118.088 950.817 120.161 954.372 123.27C957.927 126.378 960.34 130.297 963.254 133.931C964.663 135.705 965.888 137.611 967.191 139.47L968.496 138.969C968.246 137.352 967.899 135.751 967.458 134.176C966.38 131.027 964.96 127.995 963.967 124.819C962.125 119.27 962.366 113.239 964.646 107.855C965.067 109.184 965.416 110.534 965.693 111.9C966.914 121.137 967.599 130.431 971.262 139.217C971.999 140.945 971.646 143.157 971.593 145.143C971.224 154.127 970.755 163.105 970.337 172.081C970.269 173.711 970.414 175.344 970.479 177.542C974.326 175.259 976.602 172.29 978.883 169.292C982.632 164.259 986.961 159.967 993.284 158.292C996.52 157.43 997.071 157.528 1000.28 159.286C1000.89 165.225 998.71 169.162 992.963 171.233C989.224 172.581 985.248 173.253 981.344 174.241C972.466 176.512 968.09 182.811 968.792 192.442C971.771 192.816 974.873 189.999 978.351 192.953C977.251 194.965 976.25 197.175 974.915 199.139C972.843 202.161 970.525 205.012 968.335 207.954C965.777 211.466 964.088 215.534 963.405 219.825C962.909 222.909 961.998 225.911 960.696 228.75C954.657 241.369 950.107 254.648 947.138 268.319C946.537 271.008 946.388 273.789 946.04 276.539L947.429 277.165C948.191 275.94 949.028 274.757 949.708 273.478C951.509 270.12 953.124 266.661 955.017 263.358C958.17 257.876 963.558 256.213 969.355 255.679C970.753 255.548 972.251 256.566 973.904 257.123C972.033 264.734 967.296 269.163 961.321 272.535C959.625 273.6 957.756 274.361 955.798 274.783C948 276.062 945.336 281.784 944.062 288.375C941.347 302.423 941.953 316.534 944.004 330.603C944.346 331.89 944.857 333.126 945.525 334.278C945.883 338.385 946.126 342.323 946.573 346.252C948.371 360.466 948.553 374.837 947.116 389.092C946.969 390.395 946.96 391.72 946.904 392.835C955.685 399.116 963.935 393.352 973.159 391.836C970.936 397.456 969.225 402.347 963.994 404.288C956.972 404.445 954.842 396.46 947.674 396.137C947.578 398.583 947.321 400.952 947.422 403.307C947.891 414.278 948.626 425.23 948.902 436.2C949.021 440.665 948.216 445.205 947.855 449.633C947.767 450.753 947.749 451.884 947.703 452.869C953.594 456.38 957.649 452.541 961.635 449.703C966.95 453.588 967.435 462.425 962.79 466.028L950.76 459.615L950.326 460.305L947.469 456.69C945.563 471.252 943.757 485.12 941.858 499.642C945.179 500.911 948.722 502.255 952.191 503.74C954.372 504.558 956.475 505.571 958.473 506.767C963.398 509.982 963.81 514.007 959.471 519.563L941.685 505.994C939.132 515.663 938.792 525.097 936.781 533.84C938.323 537.569 942.768 538.844 942.935 544.086L934.824 540.464C929.578 553.491 927.089 566.754 926.196 581.376C929.289 580.162 932.626 579.699 935.933 580.025C939.239 580.352 942.421 581.458 945.217 583.254C950.51 586.386 957.344 587.283 961.285 594.26C959.507 593.602 958.548 593.328 957.662 592.913C951.809 590.117 946.053 587.093 940.087 584.562C935.83 582.75 931.304 581.218 926.184 584.179C923.371 601.826 922.058 619.976 917.825 637.7C916.225 633.253 917.992 629.029 918.432 624.744C918.872 620.46 919.608 616.163 920.123 611.85C920.654 607.378 921.095 602.891 921.544 598.426C921.971 594.16 922.348 589.886 922.859 584.459C916.075 588.329 908.611 586.238 903.052 591.195C901.769 592.317 899.323 592.545 897.44 592.478C894.417 592.381 891.5 591.622 888.517 591.278C886.758 591.069 884.965 591.137 883.424 591.084C881.134 593.888 880.67 596.548 881.721 599.42C883.081 603.15 882.406 606.617 880.642 610.002C879.685 611.874 879.079 613.894 878.12 616.354C879.528 616.73 880.971 616.96 882.426 617.04C892.043 616.234 899.176 619.953 903.91 628.374C905.309 630.534 905.797 633.16 905.267 635.678L904.175 636.173C903.232 634.787 902.288 633.401 901.364 632.018C899.425 629.127 897.746 626.004 895.49 623.386C891.823 619.136 886.779 618.19 879.003 620.09C878.836 623.486 878.662 627.124 878.467 630.819L877.554 630.957C876.899 626.367 876.252 621.788 875.366 615.591C877.617 609.016 878.66 602.087 878.444 595.14C878.377 593.398 879.883 591.573 880.75 589.817C882.251 586.755 883.819 583.714 885.504 580.388L879.287 574.921L874.416 580.514C871.174 575.825 875.442 571.473 873.875 566.565L868.964 564.466C862.599 585.02 863.083 606.059 859.713 626.503L858.44 626.421C858.666 624.179 858.923 621.932 859.099 619.681C859.304 617.192 859.314 614.652 859.633 612.202C861.298 599.151 863.072 586.118 864.747 573.069C865.14 569.972 865.302 566.859 865.675 562.676L857.953 567.156C853.312 585.221 853.851 604.07 847.891 621.641L846.903 621.484L855.11 570.004C851.215 569.028 847.652 568.319 844.227 567.256C840.801 566.194 837.429 564.482 835.495 560.73C835.58 559.438 835.674 557.954 835.771 556.461L835.321 556.612L830.113 540.754L826.469 542.837C824.717 567.488 822.769 591.967 822.267 616.21C825.848 618.006 826.424 615.536 827.4 613.99C829.204 611.058 830.177 607.496 833.737 605.998C838.564 607.922 839.808 610.54 837.928 614.707C835.327 620.479 829.721 622.36 822.92 618.845L820.535 621.797C819.833 618.961 819.238 616.598 818.427 613.36L806.286 605.035C802.286 602.372 799.148 598.996 798.286 594.048C798.194 593.141 798.157 592.229 798.175 591.317C803.151 589.386 807.352 591.362 811.497 593.44C815.641 595.519 818.009 599.339 819.41 604.403C821.648 598.684 824.4 553.342 823.431 542.838C814.721 539.546 808.337 543.703 807.384 553.303C807.292 555.315 806.886 557.3 806.182 559.187C804.045 552.396 805.74 546.145 809.503 540.578C810.403 539.253 813.352 538.923 815.375 538.871C817.815 538.814 820.269 539.55 823.538 540.071C823.576 537.039 823.822 534.476 823.583 531.977C822.918 524.651 822.053 517.374 821.183 510.126C821.033 508.668 820.567 507.259 819.815 506C816.871 501.409 813.788 496.867 810.744 492.331C810.373 491.796 809.89 491.335 809.3 490.653L805.694 491.8C805.933 494.876 806.005 497.854 806.422 500.766C807.569 508.692 807.21 516.763 805.364 524.556C802.591 536.549 800.435 548.681 798.026 560.742L809.033 569.322C806.871 570.547 804.646 571.656 802.367 572.644C797.744 574.327 795.939 577.837 796.158 582.368C796.406 587.673 797.093 592.957 797.586 598.251C798.126 604.2 798.727 610.149 799.156 616.1C799.219 616.971 798.659 617.884 798.058 619.875C797.175 618.043 796.266 617.078 796.387 616.256C797.512 608.689 795.43 601.36 794.882 593.931C794.495 590.797 794.321 587.64 794.363 584.482C794.563 581.131 794.016 578.209 791.558 575.528C791.688 574.142 791.515 572.555 792.022 571.218C797.96 555.567 799.996 538.981 803.788 522.816C806.154 512.612 804.846 502.652 802.664 492.259L797.727 488.991C795.135 489.499 792.55 490.089 789.931 490.512C782.656 491.682 776.781 489.216 772.294 483.569C771.026 481.99 770.523 479.814 769.763 478.103C772.265 475.109 775.097 474.811 777.914 474.926C785.744 475.233 792.485 477.978 797.719 484.088C799.174 485.518 800.734 486.836 802.386 488.032C804.322 476.716 809.819 467.071 806.391 455.416C804.349 448.468 805.462 440.595 805.132 433.14C805.059 431.498 804.896 429.852 804.715 427.433C797.692 432.167 790.829 431.64 784.039 428.309C781.315 426.974 778.925 425.135 778.274 421.912C782.141 414.934 792.123 412.788 805.25 416.197C806.333 414.499 806.91 412.528 806.916 410.513C806.921 408.499 806.355 406.525 805.281 404.82C802.323 403.559 799.573 402.513 796.866 401.201C794.377 399.983 792.032 398.496 789.822 397.242C790.993 391.606 792.639 390.876 803.837 390.565C803.826 389.437 803.756 388.311 803.626 387.19C802.021 377.132 802.089 366.879 803.826 356.843C804.366 353.456 804.453 350.179 801.584 347.656C782.4 342.734 772.964 332.623 773.349 322.902C776.727 321.912 779.483 323.485 782.09 325.237C788.136 329.239 792.79 334.659 797.055 340.493C799.041 343.22 801.735 345.442 804.658 348.449C807.834 342.799 809.292 336.345 808.853 329.878C808.484 323.744 808.805 318.175 811.708 312.481C814.26 307.46 814.203 301.588 813.924 295.781L808.941 294.45C809.51 289.934 807.775 286.396 803.88 284.338C803.576 283.831 803.322 283.295 803.123 282.738C800.341 270.143 800.093 272.838 791.155 267.991C788.358 266.481 785.545 265.071 782.673 263.52L781.008 256.875L782.046 256.271C782.883 257.033 783.613 257.906 784.215 258.864C785.644 261.968 787.507 264.574 790.657 266.159C801.652 271.699 801.637 271.727 805.199 282.229L813.385 288.81C814.424 286.798 815.426 284.831 816.795 282.153C819.007 282.952 821.052 283.845 823.188 284.418C825.325 284.992 827.506 285.157 829.655 285.905C825.529 288.092 820.433 284.171 815.991 289.043C815.925 290.531 815.773 292.947 815.711 295.368C815.626 298.827 815.621 302.29 815.537 305.739C815.428 308.504 815.487 311.273 815.714 314.031L809.186 343.227L810.058 343.731C810.861 343.142 811.594 342.464 812.243 341.709C814.035 339.109 815.527 336.289 817.445 333.789C822.467 327.188 830.553 328.294 834.008 336.035C833.04 339.374 830.258 340.5 827.227 341.03C824.196 341.559 821.273 341.66 818.313 342.13C815.352 342.6 812.516 343.748 811.374 347.1C815.093 352.037 818.678 357.115 822.602 361.912C826.77 367.022 828.627 372.523 827.042 378.974C822.543 383.623 819.061 378.218 814.435 377.825C812.583 385.631 810.741 393.438 808.783 401.723C812.908 401.256 814.654 399.064 816.218 396.691C817.781 394.317 819.093 391.802 820.78 389.54C822.032 388.071 823.394 386.7 824.856 385.44C830.418 389.365 831.338 391.597 830.008 397.593C824.72 403.129 816.091 399.769 810.361 404.334C807.243 415.826 813.342 460.341 819.024 468.528C823.209 468 827.281 467.171 831.413 467.04C838.592 466.787 845.481 472.867 846.249 479.926C846.395 481.296 845.802 482.73 845.549 484.32C841.744 484.939 839.157 482.937 836.703 481.118C832.961 478.354 829.491 475.219 825.845 472.299C824.59 471.416 823.281 470.612 821.925 469.892L821.115 470.654C821.252 471.685 821.561 472.686 822.031 473.615C824.445 476.825 824.128 480.025 822.651 483.506C821.518 486.171 820.76 489.017 820.049 491.192C826.32 494.541 831.84 497.395 837.219 500.491C837.868 500.868 837.744 502.6 837.973 503.578C833.94 508.17 828.762 507.173 823.223 507.171C823.418 518.148 825.082 528.732 825.96 539.93C830.824 538.133 834.918 537.541 838.947 540.157C842.975 542.774 844.191 546.836 845.391 551.311L857.059 551.865C860.826 536.557 865.203 521.549 865.999 505.696L862.784 503.25C864.793 495.54 868.41 488.218 868.223 479.672C857.95 475.128 850.226 468.57 851.778 455.785C856.024 454.558 856.024 454.558 870.46 460.556C872.44 452.71 872.053 444.719 872.685 436.82C873.014 432.907 871.925 429.006 869.616 425.83ZM940.396 392.496L943.692 392.85C946.116 384.629 947.032 372.4 945.717 359.432C944.801 350.506 942.868 341.672 942.218 332.728C940.995 315.814 939.688 298.857 942.696 282.082C938.127 271.997 929.489 269.01 919.623 267.376C919.199 268.186 918.847 269.031 918.573 269.902C915.519 283.592 911.192 296.826 904.149 309.121C902.454 312.071 901.602 315.509 900.294 318.886L905.572 322.492C908.866 321.903 911.96 321.292 915.076 320.807C918.191 320.321 921.306 319.835 924.192 321.682C922.641 328.676 917.357 331.59 911.201 328.725C908.468 327.297 905.811 325.728 903.242 324.024C897.426 328.362 897.485 328.372 896.022 334.437C895.488 336.711 894.818 338.944 894.259 341.244C892.576 348.113 891.326 355.08 890.518 362.106C896.585 363.367 903.398 360.27 907.055 367.314C903.139 374.791 895.937 373.977 888.933 375.037C888.694 381.997 888.462 388.724 888.234 395.178C896.401 399.589 904.098 401.231 911.867 398.551L915.329 393.159C917.909 396.031 916.681 398.022 915.155 399.46C908.193 405.975 905.181 411.591 895.229 401.225C894.406 400.246 893.307 399.538 892.074 399.196C890.842 398.853 889.535 398.891 888.325 399.304C887.451 407.266 886.564 415.307 885.734 422.931C889.955 426.115 895.562 424.801 898.12 429.969C896.95 437.691 890.013 435.977 884.551 437.466C882.912 450.361 882.265 463.362 882.615 476.356C894.26 479.529 897.268 479.34 907.258 474.917C910.908 473.302 914.503 471.526 918.168 470.004C921.225 468.739 924.399 467.888 927.8 469.291C927.864 470.01 927.844 470.734 927.74 471.448C925.552 479.14 915.002 486.562 906.969 485.818C902.696 485.43 898.476 484.464 893.943 483.741C891.004 490.493 885.66 492 878.723 491.047C875.716 512.521 872.791 533.411 869.814 554.688L890.757 552.963L893.053 538.555C900.436 541.028 899.42 547.529 901.169 553.013C902.716 550.677 903.68 548.441 905.301 546.907C911.012 541.509 916.623 536.105 918.21 529.451L934.951 518.956C934.55 523.823 931.085 526.947 927.278 530.755L933.407 532.137C937.459 521.138 938.825 509.71 936.915 502.318L927.039 500.743L927.139 500.121L938.233 499.257L932.776 483.431L933.788 483.055L938.859 493.362C942.034 485.767 944.322 470.527 944.117 461.138C944.028 458.155 944.276 455.171 944.856 452.243C948.413 435.525 947.037 418.81 945.024 402.084C944.605 398.362 943.252 395.038 940.038 392.773L940.396 392.496ZM869.069 504.606C865.866 521.837 862.895 537.808 859.875 554.025L866.137 556.856C866.82 555.749 867.519 555.112 867.624 554.389C870.656 533.273 873.603 512.245 876.635 490.683L872.116 489.619L873.651 500.891L869.069 504.606ZM894.553 569.486C900.003 568.077 905.03 566.397 910.188 565.549C916.137 564.563 919.558 569.594 924.185 573.025L926.355 559.417C920.717 560.29 920.679 560.335 916.424 556.538C914.952 555.23 913.86 553.567 912.424 552.154C910.989 550.74 909.633 549.592 908.324 548.462C903.815 551.723 895.538 564.58 894.553 569.486ZM805.408 487.116L806.129 488.436C811.091 486.594 813.741 492.202 819.66 491.981C811.9 484.06 812.374 476.004 815.419 468.338L806.972 426.547C807.027 431.478 806.986 435.927 807.151 440.358C807.329 445.145 806.983 450.113 808.146 454.693C810.334 463.264 810.147 471.366 806.717 479.538C805.762 481.846 805.821 484.59 805.413 487.148L805.408 487.116ZM877.913 475.991L879.868 475.736C880.626 462.531 881.383 449.335 882.169 435.891L876.482 430.782C875.961 432.125 875.557 433.511 875.275 434.924C874.504 444.208 873.398 453.5 873.273 462.796C873.187 467.461 875.666 471.856 877.913 475.991ZM887.161 373.509L880.612 368.982C876.048 372.204 874.517 382.511 876.821 392.387L886.291 393.897C886.628 386.892 886.9 380.485 887.181 373.513L887.161 373.509ZM894.005 333.883C885.146 346.83 875.892 359.653 878.912 367.516L887.703 363.186C889.925 353.059 891.981 343.464 894.024 333.886L894.005 333.883ZM875.528 426.479L883.673 424.04C884.386 416.711 885.052 409.8 885.793 402.101L881.28 405.573L876.082 405.15C875.919 412.081 875.744 418.645 875.548 426.482L875.528 426.479ZM807.829 393.794C813.644 379.167 813.533 371.413 805.363 364.035C803.178 373.976 804.034 384.344 807.819 393.792L807.829 393.794ZM890.785 559.772L889.856 558.612C883.575 564.982 876.466 561.429 869.535 561.013C873.349 564.658 878.201 564.52 883.046 565.191L883.766 568.547L889.024 570.691L890.785 559.772ZM922.618 581.839C922.579 581.387 922.541 580.925 922.494 580.462C915.698 577.161 908.91 573.821 900.8 572.67L901.602 576.848L910.736 577.291L914.911 583.688L922.618 581.839ZM879.118 479.485C875.691 476.781 873.377 478.782 871.17 479.605L869.799 488.206C874.111 485.998 876.405 482.91 879.118 479.485ZM911.497 543.55L911.98 544.205L925.34 533.889C922.049 533.192 922.014 533.156 920.266 534.852C917.325 537.675 914.411 540.643 911.497 543.55ZM932.853 538.854L931.589 538.46C930.52 541.034 929.462 543.609 928.406 546.165L924.486 548.142L924.773 548.694L930.006 548.516C930.976 545.228 931.922 542.027 932.859 538.814L932.853 538.854Z" fill="#38523E"/>
<path d="M501.89 453.809C491.844 453.005 481.446 452.221 474.612 443.206C472.858 440.928 472.224 437.788 471.175 435.253C475.148 431.506 478.845 432.347 482.188 433.412C488.955 435.55 495.052 438.81 499.012 445.174C500.826 448.059 503.109 450.621 505.767 452.754C504.277 439.008 504.136 425.119 496.584 413.172C497.975 404.668 494.284 381.502 490.419 375.147L483.447 373.74C478.825 368.905 475.066 363.738 474.361 356.598C481.186 352.151 486.746 356.011 492.773 359.492C495.774 346.218 502.12 334.306 503.511 321.866C498.253 317.813 493.617 314.703 489.704 310.929C488.501 309.774 489.082 306.77 488.84 304.598C496.193 304.071 499.062 305.636 507.862 314.868C508.256 312.662 508.563 310.84 508.897 309.03C510.53 299.739 511.514 290.267 513.974 281.202C518.539 264.4 520.126 246.928 518.662 229.578L508.599 224.528C509.387 222.327 509.997 220.583 510.738 218.52C505.126 221.096 506.735 227.399 503.594 231.223C501.439 225.601 502.352 221.981 507.887 213.819L513.583 213.017L503.682 191.184C501.516 195.958 499.913 199.629 498.2 203.265C493.169 213.924 481.194 217.773 469.836 212.115C469.781 208.187 470.889 204.331 473.021 201.031C475.152 197.731 478.212 195.135 481.815 193.569C488.427 190.423 496.234 189.749 504.323 187.797C502.986 183.962 501.586 180.484 500.547 176.89C498.618 170.211 497.028 163.513 495.073 156.836C493.117 150.158 490.904 143.494 488.732 136.829C486.935 131.296 484.64 125.858 486.384 118.828C490.112 120.417 493.458 122.785 496.197 125.773C498.936 128.761 501.005 132.299 502.266 136.151C505.108 144.137 500.738 151.53 497.61 159.301L500.1 164.593L503.834 164.387L518.689 144.57L524.31 146.594C529.066 155.33 524.883 163.404 524.045 171.348C531.287 184.086 531.287 184.086 530.346 189.159C526.153 191.643 526.153 191.643 512.3 191.198C512.418 196.783 516.199 205.314 521.738 211.998C531.838 212.798 538.181 220.293 544.993 227.192C548.255 230.486 551.814 233.506 556.433 237.771C556.917 233.266 557.604 230.46 557.439 227.7C556.393 210.197 558.773 193.035 562.23 175.976C563.626 169.046 563.918 162.774 560.612 155.709C557.305 148.645 556.104 140.148 554.714 132.163C553.405 124.663 557.586 118.76 562.194 113.227L561.632 103.026C556.974 97.5552 552.257 92.4818 545.351 89.3067C537.676 85.5775 530.272 81.3145 523.193 76.5491C520.787 74.9989 519.332 71.9849 517.467 69.6585C524.168 64.2003 534.387 64.4382 539.577 70.2184C543.769 74.873 547.004 80.3946 550.797 85.4376C553.267 88.84 556.125 91.9433 559.313 94.6851C559.188 78.8685 557.24 63.7087 550.727 48.9361C545.674 47.8573 540.877 46.7644 536.071 45.7399C531.663 44.8021 527.212 44.0565 522.823 42.9819C515.381 41.1526 511.253 36.6845 509.145 27.9797C515.372 24.244 521.832 25.7202 527.431 28.8181C533.03 31.9159 537.349 36.4143 542.25 40.392C544.623 42.3376 546.792 44.5116 549.051 46.5992L550.636 45.5619C549.841 43.4924 548.923 41.472 547.887 39.5115C545.558 35.65 542.808 32.0424 540.583 28.1208C536.552 21.2993 535.144 13.2433 536.621 5.4588C537.559 7.09793 538.408 8.78618 539.166 10.5163C543.43 22.4001 547.001 34.512 554.37 45.0984C555.841 47.1751 556.008 50.2058 556.507 52.8518C558.593 64.8556 560.544 76.8803 562.563 88.8878C562.941 91.0655 563.6 93.1869 564.316 96.0787C568.757 91.9529 570.92 87.369 573.081 82.7445C576.604 75.0051 581.108 68.0802 589.001 64.0491C593.04 61.9811 593.798 61.9529 598.558 63.36C601.058 71.0526 599.303 76.8897 592.284 81.2797C587.719 84.1367 582.647 86.1667 577.759 88.5937C566.652 94.1452 562.662 103.742 566.352 116.296C570.404 115.937 573.705 111.317 579.158 114.233C578.277 117.213 577.586 120.427 576.38 123.411C574.502 128.006 572.25 132.446 570.192 136.969C567.811 142.354 566.739 148.227 567.064 154.105C567.292 158.331 566.945 162.568 566.035 166.701C561.653 185.144 559.433 204.035 559.418 222.991C559.393 226.724 559.992 230.45 560.32 234.191L562.339 234.623C562.998 232.782 563.767 230.975 564.3 229.087C565.723 224.123 566.87 219.079 568.432 214.162C571.035 205.998 577.696 202.252 585.219 199.884C587.033 199.309 589.31 200.228 591.658 200.493C591.361 211.108 586.358 218.332 579.41 224.509C577.47 226.406 575.212 227.949 572.74 229.07C562.779 232.997 560.89 241.339 561.093 250.434C561.523 269.816 566.369 288.331 573.117 306.375C573.938 307.982 574.97 309.472 576.184 310.807C577.835 316.144 579.286 321.289 581.004 326.365C587.458 344.673 591.818 363.654 594 382.945C594.178 384.713 594.547 386.47 594.792 387.963C608.221 393.764 617.495 383.768 629.276 379.115C627.943 387.195 627.079 394.164 620.708 398.233C611.452 400.453 606.344 390.489 596.757 392.116C597.331 395.382 597.671 398.593 598.479 401.683C602.244 416.078 606.356 430.372 609.866 444.822C611.302 450.7 611.538 456.944 612.328 462.912C612.533 464.42 612.833 465.924 613.055 467.242C621.863 470.203 626.133 463.956 630.599 459.056C638.751 462.678 641.925 474.242 636.806 480.345L619.036 475.299L618.658 476.337L613.839 472.369C615.488 492.2 617.071 511.085 618.717 530.862C623.48 531.59 628.556 532.355 633.577 533.327C636.7 533.785 639.774 534.524 642.764 535.535C650.208 538.382 651.907 543.595 647.753 552.197L620.309 539.323C619.698 552.86 621.952 565.452 621.794 577.606C624.905 582.103 631.157 582.519 632.88 589.413L621.1 586.94C617.885 605.696 618.39 623.975 621.398 643.596C625.146 641.101 629.433 639.532 633.906 639.016C638.379 638.501 642.91 639.054 647.128 640.631C655.035 643.263 664.343 642.492 671.561 650.603C669.017 650.241 667.669 650.153 666.377 649.858C657.824 647.832 649.335 645.477 640.709 643.835C634.55 642.654 628.118 641.923 622.186 647.311C623.518 671.489 626.98 695.902 626.453 720.589C623.06 715.158 624.189 709.056 623.544 703.256C622.899 697.457 622.642 691.554 622.088 685.695C621.509 679.62 620.809 673.551 620.123 667.51C619.466 661.737 618.741 655.969 617.862 648.635C609.987 655.705 599.503 655.075 593.56 663.232C592.183 665.086 589.008 666.089 586.496 666.539C582.465 667.277 578.384 667.108 574.335 667.507C571.946 667.734 569.591 668.339 567.535 668.71C565.305 673.08 565.453 676.736 567.667 680.238C570.537 684.789 570.638 689.574 569.271 694.561C568.54 697.316 568.317 700.164 567.752 703.697C569.724 703.792 571.701 703.683 573.651 703.372C586.156 699.548 596.669 702.43 605.351 712.225C607.824 714.684 609.223 718.022 609.242 721.51L607.938 722.477C606.291 720.912 604.644 719.347 603.024 717.781C599.628 714.508 596.509 710.852 592.771 708.032C586.697 703.454 579.746 703.647 569.992 708.391C570.744 712.937 571.555 717.805 572.357 722.754L571.187 723.199C569.004 717.307 566.834 711.428 563.886 703.476C564.982 694.122 564.378 684.648 562.101 675.509C561.513 673.221 562.985 670.372 563.63 667.798C564.74 663.313 565.946 658.836 567.224 653.948L557.423 648.49L552.575 657.293C546.937 652.012 551.343 645.025 547.861 638.974L540.756 637.601C538.217 666.647 544.887 694.371 546.282 722.413L544.573 722.67C544.229 719.635 543.926 716.585 543.515 713.554C543.072 710.2 542.357 706.833 542.078 703.496C540.544 685.735 539.158 667.966 537.637 650.204C537.269 645.99 536.591 641.821 535.887 636.173L526.945 644.32C525.974 669.574 532.091 694.384 529.232 719.362L527.879 719.437L523.994 648.906C518.557 648.731 513.635 648.812 508.794 648.386C503.953 647.961 498.996 646.66 495.36 642.246C495.101 640.51 494.802 638.518 494.501 636.512L493.949 636.841L482.507 617.332L478.278 621.134C483.022 654.284 487.458 687.261 493.739 719.512C498.998 720.865 499.053 717.428 499.902 715.102C501.451 710.701 501.719 705.705 506.004 702.701C512.949 703.866 515.346 706.977 514.051 713.033C512.26 721.423 505.375 725.521 495.36 722.816L493.048 727.408C491.305 723.853 489.839 720.894 487.838 716.838L469.373 709.292C463.312 706.912 458.189 703.34 455.63 697.035C455.248 695.859 454.937 694.662 454.699 693.449C460.736 689.466 466.866 690.879 472.951 692.444C479.035 694.008 483.266 698.389 486.572 704.694C487.897 696.479 478.548 635.64 474.255 622.007C461.776 620.143 454.513 627.478 456.001 640.465C456.456 643.156 456.488 645.901 456.097 648.602C451.32 640.221 451.773 631.456 455.162 623.005C455.974 620.992 459.784 619.71 462.449 619.061C465.664 618.287 469.126 618.558 473.604 618.311C472.785 614.285 472.377 610.82 471.344 607.579C468.363 598.067 465.132 588.678 461.903 579.329C461.287 577.44 460.265 575.708 458.909 574.256C453.695 569.02 448.309 563.888 442.978 558.753C442.334 558.151 441.562 557.678 440.585 556.944L436.139 559.496C437.337 563.502 438.286 567.426 439.672 571.163C443.463 581.331 445.3 592.123 445.088 602.973C444.853 619.651 445.474 636.336 445.74 652.999L462.776 661.208C460.264 663.449 457.635 665.556 454.9 667.518C449.26 671.072 447.875 676.237 449.464 682.175C451.313 689.13 453.737 695.931 455.907 702.801C458.327 710.525 460.828 718.231 463.101 725.99C463.435 727.125 462.954 728.495 462.728 731.303C461.034 729.13 459.553 728.113 459.478 726.99C458.8 716.646 453.942 707.536 451.088 697.855C449.676 693.815 448.542 689.683 447.693 685.489C446.997 680.995 445.436 677.281 441.411 674.435C441.186 672.561 440.503 670.509 440.791 668.593C444.17 646.165 442.113 623.615 442.503 601.12C442.712 586.927 438.124 574.111 432.257 560.972L424.782 558.059C421.495 559.475 418.24 560.998 414.893 562.309C405.593 565.942 397.106 564.361 389.545 558.168C387.414 556.44 386.123 553.702 384.626 551.654C387.083 546.972 390.748 545.766 394.512 545.111C404.969 543.273 414.684 544.977 423.366 551.569C425.703 553.046 428.147 554.344 430.678 555.455C429.998 539.913 434.514 525.564 426.634 511.111C421.939 502.494 421.157 491.749 418.583 481.97C418.016 479.816 417.329 477.683 416.395 474.532C408.451 482.813 399.212 484.082 389.264 481.617C385.274 480.629 381.582 478.878 379.796 474.797C382.917 464.447 395.523 458.745 413.885 459.498C414.831 456.938 415.032 454.162 414.462 451.493C413.892 448.824 412.575 446.372 410.666 444.422C406.386 443.599 402.445 443.002 398.484 442.039C394.838 441.141 391.306 439.843 388.019 438.816C387.956 431.016 389.926 429.578 404.668 425.956C404.33 424.466 403.914 422.994 403.421 421.547C398.413 408.687 395.564 395.088 394.989 381.299C394.733 376.658 393.909 372.293 389.387 369.774C362.569 368.754 347.175 358.067 344.899 345.083C349.089 342.803 353.191 344.097 357.145 345.67C366.298 349.237 374.016 355.082 381.336 361.586C384.747 364.628 388.952 366.799 393.685 369.944C396.273 361.551 396.354 352.585 393.919 344.147C391.673 336.128 390.502 328.661 392.714 320.288C394.655 312.907 392.898 305.147 390.864 297.537L383.883 297.202C383.341 291.057 380.03 286.87 374.282 285.259C373.734 284.675 373.244 284.039 372.821 283.358C365.527 267.475 365.972 271.115 352.745 267.257C348.608 266.059 344.478 264.998 340.23 263.766L336.121 255.443L337.323 254.345C338.65 255.115 339.866 256.062 340.938 257.159C343.721 260.86 346.935 263.777 351.56 264.974C367.71 269.16 367.698 269.201 375.424 282.089L388.152 288.458C388.952 285.496 389.715 282.604 390.761 278.666C393.919 279.089 396.883 279.685 399.877 279.833C402.87 279.98 405.806 279.574 408.867 279.948C404.03 284.028 396.156 280.295 391.669 288.02C392.01 290.01 392.5 293.253 393.112 296.477C393.99 301.083 394.976 305.67 395.853 310.263C396.501 313.955 397.373 317.606 398.463 321.193L398.186 361.73L399.484 362.147C400.379 361.138 401.156 360.03 401.799 358.844C403.427 354.887 404.596 350.724 406.419 346.865C411.177 336.682 422.204 335.831 428.998 345.092C428.673 349.792 425.311 352.08 421.449 353.65C417.586 355.22 413.745 356.191 409.958 357.662C406.171 359.133 402.744 361.466 402.193 366.232C408.533 371.705 414.737 377.402 421.308 382.631C428.292 388.204 432.328 394.957 432.077 403.955C427.452 411.402 421.291 405.241 415.052 406.046C414.837 416.915 414.635 427.782 414.415 439.316C419.744 437.516 421.429 434.112 422.819 430.521C424.209 426.929 425.227 423.223 426.813 419.743C428.049 417.438 429.461 415.233 431.036 413.145C439.526 416.749 441.385 419.442 441.341 427.763C435.925 436.611 423.534 434.634 417.254 442.322C416.418 458.436 437.252 515.642 447.123 524.856C452.515 522.958 457.669 520.692 463.104 519.335C472.539 516.942 483.405 523.02 486.446 532.149C487.032 533.921 486.657 535.991 486.777 538.17C481.916 540.079 477.916 538.169 474.144 536.463C468.397 533.876 462.903 530.718 457.238 527.895C455.322 527.085 453.358 526.396 451.356 525.831L450.502 527.072C450.978 528.399 451.675 529.636 452.563 530.731C456.681 534.29 457.177 538.619 456.219 543.653C455.482 547.507 455.294 551.493 454.976 554.578C464.24 557.216 472.368 559.414 480.38 561.972C481.347 562.285 481.679 564.615 482.263 565.845C478.237 573.083 471.094 573.245 463.759 574.83C467.162 589.313 472.4 602.853 476.772 617.431C482.698 613.658 487.95 611.699 494.035 614.01C500.12 616.321 502.894 621.353 505.767 626.935L521.378 624.324C521.98 602.972 523.476 581.841 519.987 560.619L515.028 558.3C515.478 547.513 518.171 536.78 515.475 525.515C500.567 522.441 488.459 515.97 486.85 498.593C492.122 495.752 492.122 495.752 512.959 499.557C513.333 488.599 510.53 478.127 509.103 467.485C508.417 462.208 505.857 457.354 501.89 453.809ZM586.076 389.379L590.542 388.903C591.396 377.32 589.106 360.863 583.648 344.065C579.876 332.506 574.784 321.36 571.36 309.702C564.893 287.653 558.303 265.57 557.48 242.49C548.538 230.443 536.243 228.963 522.709 229.627C522.378 230.82 522.155 232.041 522.041 233.274C521.921 252.279 519.982 271.046 514.178 289.347C512.778 293.739 512.635 298.538 511.87 303.384L519.894 306.647C524.088 304.923 528.011 303.228 531.998 301.692C535.984 300.156 539.971 298.62 544.321 300.239C544.272 309.945 538.109 315.319 529.135 313.29C525.107 312.182 521.139 310.865 517.247 309.344C510.789 316.756 510.87 316.752 510.67 325.204C510.614 328.369 510.367 331.517 510.285 334.725C510.025 344.303 510.367 353.889 511.31 363.425C519.706 363.356 527.841 357.303 534.703 365.583C531.659 376.607 521.888 377.593 512.916 381.005C514.595 390.29 516.215 399.266 517.762 407.88C529.843 411.381 540.508 411.35 550.028 405.573L553.068 397.44C557.308 400.504 556.251 403.494 554.643 405.835C547.289 416.459 544.91 424.759 528.759 413.883C527.389 412.822 525.73 412.201 524 412.1C522.27 411.999 520.55 412.423 519.066 413.318C520.189 424.113 521.319 435.016 522.404 445.351C528.907 448.358 535.956 445.012 540.825 451.122C541.489 461.684 531.811 461.403 525.003 464.94C526.528 482.487 529.397 499.891 533.584 517C549.916 517.864 553.845 516.752 565.809 508.032C570.18 504.846 574.431 501.464 578.849 498.398C582.536 495.847 586.495 493.81 591.402 494.694C591.693 495.628 591.873 496.592 591.94 497.568C591.246 508.382 579.401 521.234 568.549 522.551C562.78 523.262 556.914 523.192 550.704 523.534C548.746 533.318 542.1 536.846 532.641 537.57C534.811 566.872 536.924 595.377 539.079 624.408L566.321 616.122L565.234 596.382C575.72 597.542 576.237 606.443 580.124 613.204C581.504 609.668 582.14 606.43 583.848 603.934C589.864 595.148 595.746 586.383 595.942 577.117L615.105 558.419C615.969 564.981 612.275 570.11 608.324 576.245L616.837 576.319C619.052 560.59 617.586 545.065 612.937 535.821L599.408 536.566L599.361 535.714L613.806 531.39L602.044 511.994L603.276 511.207L612.946 523.403C614.974 512.435 613.636 491.596 610.675 479.22C609.702 475.295 609.176 471.272 609.105 467.228C609.024 444.068 602.411 422.325 594.953 400.751C593.331 395.942 590.586 391.926 585.681 389.849L586.076 389.379ZM523.74 558.295C524.437 582.032 525.079 604.036 525.726 626.378L534.831 628.333C535.418 626.672 536.161 625.627 536.093 624.64C534.057 595.806 531.934 567.112 529.77 537.688L523.48 537.573L528.743 552.062L523.74 558.295ZM576.084 636.918C582.897 633.489 589.074 629.824 595.662 627.222C603.258 624.211 609.23 629.894 616.342 633.112L615.315 614.468C608.099 617.241 608.062 617.311 601.338 613.501C599.013 612.191 597.091 610.302 594.785 608.841C592.479 607.38 590.354 606.249 588.297 605.127C583.259 610.738 575.982 630.138 576.084 636.918ZM434.417 553.376L435.751 554.917C441.794 551.056 446.911 557.722 454.686 555.734C442.14 547.468 440.459 536.663 442.294 525.638L419.131 472.712C420.617 479.225 421.837 485.129 423.325 490.951C424.934 497.24 425.899 503.918 428.752 509.651C434.106 520.375 436.179 531.158 433.98 542.964C433.376 546.295 434.24 549.911 434.433 553.416L434.417 553.376ZM527.253 517.864L529.769 516.965C526.988 499.259 524.209 481.567 521.397 463.537L512.402 458.401C512.096 460.329 511.958 462.28 511.99 464.232C513.63 476.748 514.827 489.371 517.326 501.719C518.55 507.921 523.092 513.031 527.253 517.864ZM510.132 379.489L500.161 375.37C495.04 380.945 495.965 395.035 501.847 407.454L514.822 406.739C513.261 397.366 511.785 388.803 510.159 379.488L510.132 379.489ZM507.839 325.048C499.817 344.733 491.236 364.367 497.489 373.916L507.891 365.662C507.932 351.614 507.905 338.316 507.866 325.046L507.839 325.048ZM509.905 452.974L519.994 447.411C518.837 437.5 517.739 428.156 516.514 417.747L511.532 423.639L504.527 424.568C506.297 433.794 507.946 442.538 509.932 452.973L509.905 452.974ZM410.88 429.088C414.389 408.05 412.02 397.813 399.085 390.383C399.04 404.175 403.145 417.661 410.866 429.089L410.88 429.088ZM568.31 625.132L566.747 623.861C560.254 634.098 549.821 631.43 540.522 632.864C546.618 636.6 553.004 635.027 559.613 634.527L561.529 638.764L569.107 640.097L568.31 625.132ZM616.793 645.233C616.611 644.646 616.429 644.046 616.233 643.446C606.288 641.022 596.339 638.543 585.269 639.343L587.529 644.647L599.753 642.616L607.115 649.892L616.793 645.233ZM529.85 522.145C524.537 519.547 522.046 522.86 519.359 524.582L520.008 536.366C525.085 532.205 527.239 527.459 529.85 522.145ZM591.091 597.713L591.918 598.441L606.657 580.951C602.098 580.971 602.041 580.933 600.211 583.68C597.125 588.261 594.117 593.027 591.091 597.713ZM618.028 585.373L616.242 585.213C615.564 588.928 614.9 592.642 614.235 596.33L609.61 600.072L610.147 600.721L617.027 598.985C617.369 594.352 617.704 589.842 618.025 585.318L618.028 585.373Z" fill="#38523E"/>
<path d="M283.31 373.62L288.62 375.93C288.072 378.767 287.367 381.571 286.51 384.33C285.37 387.652 285.37 391.258 286.51 394.58C290.35 408.16 294.07 421.77 297.83 435.38C298.19 436.64 298.57 437.91 299.04 439.51C300.974 439.158 302.934 438.965 304.9 438.93C308.9 439.17 312.96 439.2 316.74 440.25C325.74 442.73 327.61 449.46 321.74 456.84C318.82 457.39 318.19 455.06 317.27 453.15C315.11 448.62 312.88 444.15 307.85 440.85L299.85 441.5L299.85 448.5C299.85 453.83 300.07 459.17 299.73 464.5C299.39 469.83 298.22 474.76 293.81 478.29C294.93 481.97 296.64 485.37 296.81 488.85C296.98 492.33 295.6 495.63 294.81 499.54L300.23 508.47C305.18 508.72 310.6 509.06 316.02 509.25C322.32 509.47 328.64 509.35 334.92 509.78C337.73 509.97 340.28 511.44 342.31 514.78C340.31 516.23 338.54 518.06 336.39 518.94C328.94 522.02 321.56 522.43 314.56 517.45C310.92 514.85 307.14 512.45 303.67 510.1C298.8 511.1 297.94 515.44 294.67 518.31C297.03 521.82 299.19 525.06 301.36 528.31L300.23 529.04L292.33 518.68C288.8 521.47 284.85 523.82 279.84 522.1C277.67 521.35 276.02 520.1 275.53 517.95C275.84 515.01 277.78 513.62 280.01 512.88C283.79 511.64 287.64 510.6 291.52 509.74C294.29 509.12 294.33 509.3 296.8 506.74C295.51 504.49 294.15 502.1 292.5 499.2C296.06 492.71 295.45 485.79 291.86 479.31C300.39 469.24 297.08 457.92 297.73 447.41L293.12 441.7C285.56 447.11 277.53 445.05 269.61 443.12C266.8 442.43 264.35 440.59 262 437.07L296 440.28C296.155 439.038 296.155 437.782 296 436.54C292 421.47 287.85 406.41 283.88 391.81C280.01 391.07 276.75 390.63 273.62 389.73C272.62 389.43 271.9 387.93 271.23 387.16C272.36 381.94 277.33 381.82 280.3 379C281.3 372.13 280.01 365.27 278.74 358.41C276.05 343.86 273.37 329.31 270.67 314.67L268.36 312.75C268.83 310.99 269.58 309.45 269.61 307.89C269.983 290.737 270.287 273.587 270.52 256.44C270.467 255.101 270.343 253.766 270.15 252.44L266.97 250.31C265.97 247.64 268.53 244.68 273.43 243C273.48 244.18 273.97 245.51 273.5 246.23C271.5 249.28 271.86 252.6 271.86 255.91C271.86 271.243 271.86 286.577 271.86 301.91L271.86 308.17C276.23 307.49 280.07 306.46 283.93 306.42C288.183 306.363 292.427 306.843 296.56 307.85C298.307 308.26 299.874 309.224 301.029 310.597C302.184 311.97 302.865 313.679 302.97 315.47C300.78 318.65 297.4 319.25 294.17 318.47C290.664 317.557 287.285 316.214 284.11 314.47C281.365 312.87 278.714 311.114 276.17 309.21L272.88 310.81C272.717 311.831 272.664 312.867 272.72 313.9C274.053 321.773 275.387 329.64 276.72 337.5C278.87 349.43 281.08 361.36 283.31 373.62Z" fill="#38523E"/>
</svg>
