<svg width="1078" height="480" viewBox="0 0 1078 480" fill="none" xmlns="http://www.w3.org/2000/svg">
<path d="M1.95801 68.7295C4.69839 69.5463 11.3793 72.4469 22.0554 75.4322C32.7314 78.4174 44.3501 83.8958 56.9114 87.8674C69.4809 91.8519 83.5905 96.6882 99.2403 102.376C114.89 108.065 126.768 111.489 134.874 114.649C142.983 117.762 150.399 119.559 157.121 122.041C163.842 124.522 169.074 126.38 172.815 127.612C176.548 128.839 184.018 131.278 195.223 134.931C206.428 138.583 220.641 142.825 237.86 147.655C255.109 152.49 273.158 157.326 292.008 162.163C310.859 167 328.988 171.273 346.398 174.981C363.772 178.691 377.387 181.404 387.245 183.119C397.102 184.835 409.578 186.947 424.673 189.456C439.817 191.968 461.356 194.695 489.289 197.634C517.223 200.574 540.25 202.812 558.372 204.348C576.471 205.878 597.656 206.993 621.926 207.692C646.196 208.392 666.303 208.471 682.247 207.93C698.198 207.381 709.904 206.89 717.365 206.456C724.826 206.021 730.466 205.743 734.286 205.62C738.107 205.51 749.747 204.906 769.207 203.808C788.666 202.709 808.895 200.624 829.894 197.554C850.885 194.476 866.964 192.021 878.131 190.188C889.297 188.355 901.904 185.736 915.951 182.331C929.97 178.927 940.538 176.314 947.655 174.492C954.772 172.67 962.803 170.283 971.746 167.332C980.674 164.368 989.043 161.401 996.854 158.43C1004.66 155.46 1012.28 152.188 1019.69 148.615C1025.96 145.693 1032 142.343 1037.75 138.59C1042.05 135.765 1045.81 132.275 1048.86 128.267C1051.42 125.039 1053.13 121.295 1053.88 117.331C1054.45 114.235 1054.31 111.058 1053.46 108.013C1052.56 105.234 1051.18 102.613 1049.37 100.259C1047.49 97.748 1042.76 94.1829 1035.21 89.5633C1027.65 84.9437 1017.15 80.3861 1003.7 75.8906C990.111 71.3448 976.265 67.5002 962.23 64.374C948.008 61.1928 931.846 58.319 913.743 55.7525C895.64 53.186 877.815 51.2097 860.268 49.8235C842.721 48.444 829.201 47.4029 819.707 46.7C810.214 45.9972 801.63 45.4555 793.956 45.0749C786.156 44.6423 779.767 44.4485 774.788 44.4933C769.809 44.5381 765.245 44.3819 761.095 44.0249C756.954 43.674 743.135 44.1297 719.638 45.392C696.141 46.6543 678.434 47.7653 666.515 48.7251C654.568 49.6801 645.313 50.4757 638.751 51.112C632.188 51.7484 621.975 53.1181 608.11 55.2212C594.267 57.3163 579.601 59.8628 564.112 62.8609C548.624 65.859 534.535 69.2269 521.845 72.9645C509.522 76.5571 497.436 80.826 485.65 85.7493C475.247 90.056 465.116 94.9166 455.306 100.307C447.836 104.34 440.734 108.943 434.071 114.069C429.368 117.725 424.98 121.724 420.947 126.027C417.81 129.437 415.031 133.124 412.65 137.038C410.401 141.079 407.424 147.383 407.859 151.933C408.162 157.074 410.194 164.002 410.194 164.002C410.194 164.002 412.895 170.021 416.615 175.614C419.938 180.698 423.755 185.484 428.018 189.909C431.886 193.854 435.178 197.075 437.894 199.571C440.609 202.067 443.153 204.555 445.526 207.034C447.905 209.505 455.543 215.052 468.441 223.674C482.496 232.973 497.142 241.455 512.296 249.073C528.641 257.363 546.227 265.542 565.053 273.609C583.879 281.677 598.924 288.09 610.187 292.848C621.466 297.625 629.821 301.147 635.252 303.412C640.683 305.677 653.74 310.573 674.424 318.097C695.093 325.623 714.733 332.678 733.343 339.263C751.953 345.847 769.289 351.431 785.351 356.016C801.419 360.601 813.949 363.94 822.939 366.032C831.929 368.125 841.03 370.354 850.241 372.72C859.46 375.099 866.945 377.196 872.697 379.013C878.448 380.829 896.008 384.828 925.377 391.01C954.746 397.192 978.571 402.058 996.85 405.609C1015.13 409.16 1027.7 411.39 1034.55 412.298C1041.41 413.187 1045.09 413.538 1045.6 413.351" stroke="#38523E" stroke-width="3" stroke-linecap="round" stroke-linejoin="round"/>
<path d="M1021.15 427.444L1047.69 412.868L1022.28 396.83" stroke="#38523E" stroke-width="3" stroke-linecap="round"/>
</svg>
