<svg width="375" height="491" viewBox="0 0 375 491" fill="none" xmlns="http://www.w3.org/2000/svg">
<path d="M294.728 477.674L315.135 485.587L312.202 464.066" stroke="#38523E" stroke-width="2" stroke-linecap="round"/>
<path d="M53.249 1.5769C53.7875 2.5878 54.8465 5.29478 56.9994 9.18051C59.1523 13.0662 60.8727 17.8896 63.2776 22.584C65.6811 27.2842 68.2776 32.6572 71.0672 38.7032C73.8567 44.7491 76.2233 49.0997 77.6084 52.2882C79.0077 55.4652 80.5802 58.0906 81.7675 60.6977C82.9549 63.3047 83.8997 65.314 84.602 66.7254C85.3039 68.1329 86.7121 70.9451 88.8268 75.1619C90.9414 79.3788 93.7328 84.6229 97.201 90.8944C100.676 97.1755 104.375 103.689 108.297 110.434C112.219 117.179 116.098 123.565 119.933 129.592C123.757 135.61 126.808 140.274 129.086 143.584C131.365 146.894 134.265 151.068 137.787 156.105C141.322 161.158 146.586 168.119 153.579 176.987C160.572 185.854 166.389 193.115 171.029 198.769C175.665 204.416 181.28 210.844 187.874 218.054C194.467 225.264 200.07 231.104 204.681 235.574C209.296 240.045 212.708 243.301 214.917 245.345C217.125 247.388 218.781 248.946 219.883 250.019C220.983 251.095 224.408 254.303 230.158 259.642C235.908 264.98 242.149 270.279 248.881 275.537C255.612 280.791 260.795 284.79 264.431 287.533C268.066 290.276 272.324 293.226 277.204 296.383C282.076 299.532 285.762 301.894 288.262 303.468C290.762 305.042 293.674 306.729 297 308.53C300.325 310.324 303.495 311.955 306.509 313.423C309.524 314.891 312.567 316.222 315.638 317.415C318.209 318.451 320.833 319.305 323.489 319.967C325.481 320.459 327.507 320.616 329.481 320.432C331.097 320.31 332.622 319.808 333.938 318.967C334.962 318.306 335.809 317.417 336.422 316.36C336.948 315.36 337.293 314.261 337.443 313.109C337.617 311.894 337.292 309.577 336.467 306.158C335.643 302.739 333.978 298.484 331.473 293.395C328.94 288.249 326.14 283.217 323.087 278.321C319.997 273.357 316.278 267.913 311.931 261.99C307.584 256.067 303.149 250.381 298.628 244.933C294.104 239.487 290.613 235.297 288.153 232.362C285.694 229.427 283.444 226.798 281.404 224.476C279.343 222.103 277.609 220.202 276.204 218.773C274.799 217.344 273.566 215.982 272.505 214.686C271.444 213.394 267.451 209.516 260.526 203.053C253.6 196.589 248.337 191.761 244.735 188.568C241.126 185.365 238.315 182.898 236.302 181.169C234.288 179.439 231.049 176.849 226.583 173.397C222.125 169.949 217.312 166.384 212.142 162.701C206.972 159.018 202.091 155.839 197.497 153.163C193.047 150.555 188.474 148.196 183.802 146.098C179.69 144.235 175.498 142.599 171.249 141.198C168.033 140.112 164.761 139.284 161.466 138.722C159.13 138.336 156.786 138.133 154.456 138.113C152.626 138.114 150.819 138.293 149.06 138.648C147.303 139.074 144.71 139.894 143.561 141.233C142.21 142.692 140.844 145.127 140.844 145.127C140.844 145.127 139.919 147.514 139.398 150.082C138.908 152.4 138.64 154.781 138.596 157.194C138.577 159.366 138.598 161.177 138.661 162.629C138.724 164.08 138.741 165.48 138.712 166.828C138.688 168.175 139.275 171.865 140.476 177.897C141.811 184.444 143.54 190.944 145.652 197.362C147.909 204.303 150.545 211.573 153.558 219.173C156.572 226.772 158.99 232.836 160.812 237.365C162.633 241.903 163.987 245.26 164.874 247.436C165.76 249.611 168.046 254.696 171.731 262.688C175.412 270.677 178.936 278.242 182.303 285.384C185.67 292.525 188.96 299.032 192.173 304.903C195.388 310.775 197.961 315.292 199.891 318.452C201.822 321.612 203.745 324.84 205.661 328.136C207.576 331.439 209.084 334.164 210.186 336.313C211.287 338.462 215.083 344.61 221.572 354.758C228.062 364.906 233.367 373.099 237.489 379.336C241.611 385.573 244.504 389.804 246.168 392.03C247.839 394.253 313.787 483.927 313.787 483.927" stroke="#38523E" stroke-width="2" stroke-linecap="round" stroke-linejoin="round"/>
</svg>
